<?xml version="1.0" encoding="utf-8"?>
<svg version="1.1"
    xmlns="http://www.w3.org/2000/svg"
    x="0px" y="0px" viewBox="0 0 1000 1000" enable-background="new 0 0 1000 1000" xml:space="preserve">
    <metadata> Svg Vector Icons : http://www.onlinewebfonts.com/icon </metadata>
    <g>
        <g transform="translate(0.000000,511.000000) scale(0.100000,-0.100000)">
            <path fill="currentColor" d="M4492.6,4940.5c-360.4-115.3-657.3-334.4-859.1-628.5c-147-216.2-2923.4-6328.2-2995.4-6596.3c-86.5-320-83.6-781.3,2.9-1066.7c173-565.1,553.5-986,1141.7-1257c118.2-54.8,294.1-118.2,395-141.3c239.3-54.8,674.6-54.8,899.5,2.9c219.1,57.7,530.5,210.5,738,366.1C4189.9-4100.6,8471.2-445,8632.6-272c1006.2,1107.1,1058.1,2441.9,135.5,3451c-198.9,219.1-533.3,475.7-818.8,637.1c-302.7,170.1-2378.5,1107.1-2548.6,1153.2C5158.6,5032.7,4734.8,5021.2,4492.6,4940.5z M5302.8,4534C5556.5,4459,7687,3470.2,7909,3326c118.2-77.8,334.4-262.4,478.6-406.5c224.9-224.9,285.4-305.6,395-536.2c152.8-317.1,193.2-487.2,193.2-815.9c0-593.9-305.6-1202.2-867.8-1732.7c-337.3-320-4436.9-3773.8-4638.8-3912.2c-109.6-72.1-273.9-161.4-366.1-196c-691.9-262.3-1597.2,121.1-1946,824.6c-112.4,224.9-121.1,262.3-132.6,539.1c-14.4,343.1,23.1,524.7,187.4,902.4c124,285.4,89.4,279.6,507.4,83.6l279.7-129.7l-46.1-106.7c-178.7-403.6-196-461.3-196-642.9c0-415.1,325.8-752.4,769.7-798.6c196.1-20.1,348.8,23.1,556.4,161.5C3379.8-3247.2,7341,172,7519.8,388.2c461.3,559.3,568,1187.8,297,1764.4c-106.7,224.9-420.9,562.2-668.9,720.7c-98,60.6-593.9,302.7-1101.3,533.4c-983.1,446.9-1084,478.6-1274.3,380.6c-132.6-69.2-170.1-132.6-467-781.3c-158.6-346-294.1-634.3-299.8-640c-5.8-5.8-25.9,95.1-43.2,224.9c-20.2,126.8-43.2,250.8-51.9,273.9c-8.6,20.2-89.4,95.1-181.6,164.3l-170.1,124l164.3,360.4c89.4,196,198.9,418,242.2,490.1c144.2,245.1,458.4,475.7,735.2,542C4873.2,4585.9,5147.1,4580.1,5302.8,4534z M5870.7,3000.2c478.6-219.1,962.9-458.4,1075.4-533.3c717.9-481.4,769.8-1236.8,126.9-1899.9c-305.6-320-4168.8-3618.1-4318.7-3690.2c-109.6-54.8-141.3-57.7-239.3-28.8c-63.4,20.2-158.6,74.9-213.3,121.1c-193.2,170.1-247.9,25.9,1213.7,3234.7c723.6,1588.5,1346.3,2957.9,1383.8,3041.6c34.6,80.7,75,149.9,83.6,149.9S5392.2,3216.4,5870.7,3000.2z M3460.5,2668.7c46.1-54.8,69.2-161.4,121.1-588.1l63.4-521.8L3051.1,249.8c-328.7-720.7-605.4-1317.5-616.9-1331.9c-31.7-31.7-651.6,259.5-648.7,302.7c5.8,54.8,1579.9,3511.5,1600.1,3511.5C3394.2,2732.1,3428.8,2703.3,3460.5,2668.7z M1903.7-1358.9c302.7-135.5,351.7-178.7,302.7-256.6c-17.3-26-100.9,0-340.2,112.5c-173,80.7-320,149.9-322.9,155.7c-11.5,11.5,23.1,129.7,37.5,129.7C1586.6-1217.6,1730.8-1281,1903.7-1358.9z"/>
            <path fill="currentColor" d="M2131.5-413.2c-155.7-124-66.3-371.9,135.5-371.9c198.9,0,291.2,222,149.9,360.4C2330.4-338.3,2232.4-332.5,2131.5-413.2z"/>
        </g>
    </g>
</svg>