<svg width="1000" height="1000" viewBox="0 0 1000 1000" fill="none" xmlns="http://www.w3.org/2000/svg">
<ellipse cx="500" cy="500" rx="500" ry="500" fill="url(#paint0_linear_2_18)"/>
<path d="M316.634 246.626C300.255 264.651 290.756 286.42 288.972 309.308C287.736 326.091 329.675 756.144 334.29 773.406C339.767 794.028 354.774 819.649 368.781 832.774C396.611 858.706 431.367 869.923 472.877 866.099C481.229 865.35 493.075 863.223 499.443 861.263C514.546 856.616 538.81 842.607 549.49 832.153C559.846 821.885 572.287 803.346 578.846 787.994C590.731 760.344 711.734 418.785 715.164 403.947C735.622 309.851 695.557 233.775 611.653 207.218C593.514 201.405 566.615 197.864 545.507 198.055C523.159 198.315 377.292 212.89 366.327 215.795C350.791 220.052 327.537 234.332 316.634 246.626ZM374.879 243.21C391.435 239.226 542.017 225.778 559.033 226.672C568.126 227.205 586.118 230.537 598.794 233.928C618.569 239.227 624.538 241.778 638.069 251.105C656.792 263.864 664.518 272.046 675.097 290.368C694.21 323.474 696.752 367.217 682.487 414.882C673.983 443.575 556.614 768.038 549.814 782.251C546.025 789.797 539.74 800.062 535.714 804.958C505.588 841.847 442.785 849.611 400.701 821.621C387.197 812.702 385.509 810.897 375.959 795.838C364.115 777.176 360.36 765.846 357.363 739.504C355.09 719.605 353.348 721.041 382.957 718.515L402.722 716.743L403.586 724.174C406.614 752.423 407.507 756.196 413.351 766.319C426.711 789.458 455.727 797.775 481.958 786.064C493.536 780.873 500.658 773.551 507.776 759.155C518.109 738.844 628.877 420.765 631.886 402.959C639.6 356.936 625.32 318.467 591.657 295.048C578.472 285.945 550.102 277.255 531.177 276.401C523.763 276.177 488.329 278.641 452.621 282.111C383.437 288.839 376.792 290.319 369.338 301.906C364.174 310.031 364.124 314.772 368.451 360.488C370.746 384.879 372.471 405.311 372.337 405.812C372.2 406.322 367.832 401.344 362.691 394.666C357.484 388.247 352.211 382.076 350.983 381.068C349.853 380.219 342.939 378.644 335.572 377.754L322.1 376.316L319.659 350.939C318.335 337.136 317.294 321.237 317.387 315.824C317.537 297.521 327.63 274.555 340.926 261.951C349.261 254.143 364.716 245.651 374.879 243.21ZM455.898 310.432C489.628 307.242 524.325 304.995 533.007 305.55C588.518 309.28 615.722 349.718 601.225 407.371C594.489 435.044 485.287 743.22 479.251 752.063C474.905 758.645 473.232 759.827 466.839 761.37C462.654 762.284 455.587 762.299 451.051 761.484C434.807 758.22 436.399 768.018 414.604 542.112C403.816 430.277 394.456 333.902 393.852 328.029C393.184 322.418 393.209 317.26 393.688 316.983C394.168 316.706 422.267 313.78 455.898 310.432ZM332.215 406.478C336.548 408.049 341.267 413.248 357.892 435.363L378.22 462.409L387.242 554.49C392.114 605.243 395.896 647.415 395.719 648.588C394.972 651.375 351.045 655.093 349.817 652.592C348.376 649.351 324.874 406.005 326 405.355C326.479 405.078 329.335 405.57 332.215 406.478ZM375.056 681.091C396.29 678.902 400.411 679.733 400.187 685.653C400.059 687.659 394.563 688.9 377.603 690.33C365.362 691.399 354.941 692.273 354.592 692.043C353.581 691.772 351.706 684.07 352.509 683.606C352.832 683.42 362.911 682.313 375.056 681.091Z" fill="white"/>
<path d="M370.317 621.042C365.629 632.965 378.591 643.907 389.84 637.412C400.927 631.011 398.927 615.666 386.597 612.498C378.994 610.466 373.345 613.296 370.317 621.042Z" fill="white"/>
<defs>
<linearGradient id="paint0_linear_2_18" x1="927.5" y1="745" x2="133.5" y2="162.5" gradientUnits="userSpaceOnUse">
<stop stop-color="#4CA1EF"/>
<stop offset="1" stop-color="#3AEEB8"/>
</linearGradient>
</defs>
</svg>
